<mxfile host="app.diagrams.net" modified="2023-06-04T11:30:31.980Z" agent="Mozilla/5.0 (Windows NT 10.0; Win64; x64) AppleWebKit/537.36 (KHTML, like Gecko) Chrome/113.0.0.0 Safari/537.36" etag="ijr3Lv6-DfP_GPLJAC2i" version="21.3.7" type="device">
  <diagram id="C5RBs43oDa-KdzZeNtuy" name="Page-1">
    <mxGraphModel dx="2390" dy="1340" grid="1" gridSize="10" guides="1" tooltips="1" connect="1" arrows="1" fold="1" page="1" pageScale="1" pageWidth="827" pageHeight="1169" math="0" shadow="0">
      <root>
        <mxCell id="WIyWlLk6GJQsqaUBKTNV-0" />
        <mxCell id="WIyWlLk6GJQsqaUBKTNV-1" parent="WIyWlLk6GJQsqaUBKTNV-0" />
        <mxCell id="bBZBjRqpBGA2IM5Kb0tL-0" value="" style="edgeStyle=orthogonalEdgeStyle;rounded=0;orthogonalLoop=1;jettySize=auto;html=1;" edge="1" parent="WIyWlLk6GJQsqaUBKTNV-1" source="bBZBjRqpBGA2IM5Kb0tL-26" target="bBZBjRqpBGA2IM5Kb0tL-3">
          <mxGeometry relative="1" as="geometry">
            <Array as="points">
              <mxPoint x="380.5" y="300" />
              <mxPoint x="380.5" y="300" />
            </Array>
          </mxGeometry>
        </mxCell>
        <mxCell id="bBZBjRqpBGA2IM5Kb0tL-1" value="Start&lt;br&gt;" style="ellipse;whiteSpace=wrap;html=1;" vertex="1" parent="WIyWlLk6GJQsqaUBKTNV-1">
          <mxGeometry x="317.5" y="110" width="120" height="80" as="geometry" />
        </mxCell>
        <mxCell id="bBZBjRqpBGA2IM5Kb0tL-2" value="" style="edgeStyle=orthogonalEdgeStyle;rounded=0;orthogonalLoop=1;jettySize=auto;html=1;" edge="1" parent="WIyWlLk6GJQsqaUBKTNV-1" source="bBZBjRqpBGA2IM5Kb0tL-3" target="bBZBjRqpBGA2IM5Kb0tL-5">
          <mxGeometry relative="1" as="geometry" />
        </mxCell>
        <mxCell id="bBZBjRqpBGA2IM5Kb0tL-3" value="i=0" style="whiteSpace=wrap;html=1;" vertex="1" parent="WIyWlLk6GJQsqaUBKTNV-1">
          <mxGeometry x="324" y="360" width="120" height="60" as="geometry" />
        </mxCell>
        <mxCell id="bBZBjRqpBGA2IM5Kb0tL-4" value="" style="edgeStyle=orthogonalEdgeStyle;rounded=0;orthogonalLoop=1;jettySize=auto;html=1;" edge="1" parent="WIyWlLk6GJQsqaUBKTNV-1" source="bBZBjRqpBGA2IM5Kb0tL-5" target="bBZBjRqpBGA2IM5Kb0tL-8">
          <mxGeometry relative="1" as="geometry" />
        </mxCell>
        <mxCell id="bBZBjRqpBGA2IM5Kb0tL-5" value="j=0" style="whiteSpace=wrap;html=1;" vertex="1" parent="WIyWlLk6GJQsqaUBKTNV-1">
          <mxGeometry x="324" y="450" width="120" height="60" as="geometry" />
        </mxCell>
        <mxCell id="bBZBjRqpBGA2IM5Kb0tL-6" value="" style="edgeStyle=orthogonalEdgeStyle;rounded=0;orthogonalLoop=1;jettySize=auto;html=1;" edge="1" parent="WIyWlLk6GJQsqaUBKTNV-1" source="bBZBjRqpBGA2IM5Kb0tL-8" target="bBZBjRqpBGA2IM5Kb0tL-9">
          <mxGeometry relative="1" as="geometry" />
        </mxCell>
        <mxCell id="bBZBjRqpBGA2IM5Kb0tL-7" value="" style="edgeStyle=orthogonalEdgeStyle;rounded=0;orthogonalLoop=1;jettySize=auto;html=1;" edge="1" parent="WIyWlLk6GJQsqaUBKTNV-1" source="bBZBjRqpBGA2IM5Kb0tL-31" target="bBZBjRqpBGA2IM5Kb0tL-13">
          <mxGeometry relative="1" as="geometry">
            <Array as="points">
              <mxPoint x="384" y="1050" />
              <mxPoint x="384" y="1050" />
            </Array>
          </mxGeometry>
        </mxCell>
        <mxCell id="bBZBjRqpBGA2IM5Kb0tL-8" value="i&amp;lt;n-1" style="rhombus;whiteSpace=wrap;html=1;" vertex="1" parent="WIyWlLk6GJQsqaUBKTNV-1">
          <mxGeometry x="344" y="620" width="80" height="80" as="geometry" />
        </mxCell>
        <mxCell id="bBZBjRqpBGA2IM5Kb0tL-9" value="End&lt;br&gt;" style="ellipse;whiteSpace=wrap;html=1;" vertex="1" parent="WIyWlLk6GJQsqaUBKTNV-1">
          <mxGeometry x="504" y="620" width="80" height="80" as="geometry" />
        </mxCell>
        <mxCell id="bBZBjRqpBGA2IM5Kb0tL-10" value="I&lt;br&gt;" style="text;html=1;strokeColor=none;fillColor=none;align=center;verticalAlign=middle;whiteSpace=wrap;rounded=0;" vertex="1" parent="WIyWlLk6GJQsqaUBKTNV-1">
          <mxGeometry x="340" y="700" width="60" height="30" as="geometry" />
        </mxCell>
        <mxCell id="bBZBjRqpBGA2IM5Kb0tL-11" style="edgeStyle=orthogonalEdgeStyle;rounded=0;orthogonalLoop=1;jettySize=auto;html=1;entryX=1;entryY=0.5;entryDx=0;entryDy=0;" edge="1" parent="WIyWlLk6GJQsqaUBKTNV-1" source="bBZBjRqpBGA2IM5Kb0tL-29" target="bBZBjRqpBGA2IM5Kb0tL-13">
          <mxGeometry relative="1" as="geometry">
            <Array as="points">
              <mxPoint x="544" y="770" />
              <mxPoint x="544" y="1230" />
            </Array>
          </mxGeometry>
        </mxCell>
        <mxCell id="bBZBjRqpBGA2IM5Kb0tL-12" value="" style="edgeStyle=orthogonalEdgeStyle;rounded=0;orthogonalLoop=1;jettySize=auto;html=1;" edge="1" parent="WIyWlLk6GJQsqaUBKTNV-1" source="bBZBjRqpBGA2IM5Kb0tL-13" target="bBZBjRqpBGA2IM5Kb0tL-16">
          <mxGeometry relative="1" as="geometry" />
        </mxCell>
        <mxCell id="bBZBjRqpBGA2IM5Kb0tL-13" value="i++&lt;br&gt;" style="whiteSpace=wrap;html=1;" vertex="1" parent="WIyWlLk6GJQsqaUBKTNV-1">
          <mxGeometry x="320.5" y="1200" width="120" height="60" as="geometry" />
        </mxCell>
        <mxCell id="bBZBjRqpBGA2IM5Kb0tL-14" value="H" style="text;html=1;strokeColor=none;fillColor=none;align=center;verticalAlign=middle;whiteSpace=wrap;rounded=0;" vertex="1" parent="WIyWlLk6GJQsqaUBKTNV-1">
          <mxGeometry x="410" y="630" width="60" height="30" as="geometry" />
        </mxCell>
        <mxCell id="bBZBjRqpBGA2IM5Kb0tL-15" style="edgeStyle=orthogonalEdgeStyle;rounded=0;orthogonalLoop=1;jettySize=auto;html=1;entryX=0;entryY=0.5;entryDx=0;entryDy=0;" edge="1" parent="WIyWlLk6GJQsqaUBKTNV-1" source="bBZBjRqpBGA2IM5Kb0tL-16" target="bBZBjRqpBGA2IM5Kb0tL-8">
          <mxGeometry relative="1" as="geometry">
            <mxPoint x="340" y="660" as="targetPoint" />
            <Array as="points">
              <mxPoint x="210" y="1320" />
              <mxPoint x="210" y="660" />
            </Array>
          </mxGeometry>
        </mxCell>
        <mxCell id="bBZBjRqpBGA2IM5Kb0tL-16" value="j++" style="whiteSpace=wrap;html=1;" vertex="1" parent="WIyWlLk6GJQsqaUBKTNV-1">
          <mxGeometry x="320.5" y="1290" width="120" height="60" as="geometry" />
        </mxCell>
        <mxCell id="bBZBjRqpBGA2IM5Kb0tL-17" style="edgeStyle=orthogonalEdgeStyle;rounded=0;orthogonalLoop=1;jettySize=auto;html=1;" edge="1" parent="WIyWlLk6GJQsqaUBKTNV-1" source="bBZBjRqpBGA2IM5Kb0tL-31">
          <mxGeometry relative="1" as="geometry">
            <mxPoint x="320" y="1310" as="targetPoint" />
            <Array as="points">
              <mxPoint x="260" y="895" />
              <mxPoint x="260" y="1310" />
            </Array>
          </mxGeometry>
        </mxCell>
        <mxCell id="bBZBjRqpBGA2IM5Kb0tL-18" value="" style="edgeStyle=orthogonalEdgeStyle;rounded=0;orthogonalLoop=1;jettySize=auto;html=1;" edge="1" parent="WIyWlLk6GJQsqaUBKTNV-1" source="bBZBjRqpBGA2IM5Kb0tL-19" target="bBZBjRqpBGA2IM5Kb0tL-21">
          <mxGeometry relative="1" as="geometry" />
        </mxCell>
        <mxCell id="bBZBjRqpBGA2IM5Kb0tL-19" value="temp = t[j + 1]" style="whiteSpace=wrap;html=1;" vertex="1" parent="WIyWlLk6GJQsqaUBKTNV-1">
          <mxGeometry x="324" y="980" width="120" height="60" as="geometry" />
        </mxCell>
        <mxCell id="bBZBjRqpBGA2IM5Kb0tL-20" value="" style="edgeStyle=orthogonalEdgeStyle;rounded=0;orthogonalLoop=1;jettySize=auto;html=1;" edge="1" parent="WIyWlLk6GJQsqaUBKTNV-1" source="bBZBjRqpBGA2IM5Kb0tL-21" target="bBZBjRqpBGA2IM5Kb0tL-22">
          <mxGeometry relative="1" as="geometry" />
        </mxCell>
        <mxCell id="bBZBjRqpBGA2IM5Kb0tL-21" value="t[j + 1] = t[j]" style="whiteSpace=wrap;html=1;" vertex="1" parent="WIyWlLk6GJQsqaUBKTNV-1">
          <mxGeometry x="324" y="1050" width="120" height="60" as="geometry" />
        </mxCell>
        <mxCell id="bBZBjRqpBGA2IM5Kb0tL-22" value="t[j] = temp" style="whiteSpace=wrap;html=1;" vertex="1" parent="WIyWlLk6GJQsqaUBKTNV-1">
          <mxGeometry x="324" y="1120" width="120" height="60" as="geometry" />
        </mxCell>
        <mxCell id="bBZBjRqpBGA2IM5Kb0tL-23" value="I&lt;br&gt;" style="text;html=1;strokeColor=none;fillColor=none;align=center;verticalAlign=middle;whiteSpace=wrap;rounded=0;" vertex="1" parent="WIyWlLk6GJQsqaUBKTNV-1">
          <mxGeometry x="380.5" y="950" width="60" height="30" as="geometry" />
        </mxCell>
        <mxCell id="bBZBjRqpBGA2IM5Kb0tL-24" value="H&lt;br&gt;" style="text;html=1;strokeColor=none;fillColor=none;align=center;verticalAlign=middle;whiteSpace=wrap;rounded=0;" vertex="1" parent="WIyWlLk6GJQsqaUBKTNV-1">
          <mxGeometry x="267" y="860" width="60" height="30" as="geometry" />
        </mxCell>
        <mxCell id="bBZBjRqpBGA2IM5Kb0tL-25" value="" style="edgeStyle=orthogonalEdgeStyle;rounded=0;orthogonalLoop=1;jettySize=auto;html=1;" edge="1" parent="WIyWlLk6GJQsqaUBKTNV-1" source="bBZBjRqpBGA2IM5Kb0tL-1" target="bBZBjRqpBGA2IM5Kb0tL-26">
          <mxGeometry relative="1" as="geometry">
            <mxPoint x="380.5" y="270" as="sourcePoint" />
            <mxPoint x="380.5" y="360" as="targetPoint" />
            <Array as="points">
              <mxPoint x="380.5" y="270" />
              <mxPoint x="380.5" y="270" />
            </Array>
          </mxGeometry>
        </mxCell>
        <mxCell id="bBZBjRqpBGA2IM5Kb0tL-26" value="n = tomb hossz" style="rounded=0;whiteSpace=wrap;html=1;" vertex="1" parent="WIyWlLk6GJQsqaUBKTNV-1">
          <mxGeometry x="320.5" y="280" width="120" height="60" as="geometry" />
        </mxCell>
        <mxCell id="bBZBjRqpBGA2IM5Kb0tL-27" value="tomb = t" style="rounded=0;whiteSpace=wrap;html=1;" vertex="1" parent="WIyWlLk6GJQsqaUBKTNV-1">
          <mxGeometry x="320.5" y="200" width="120" height="60" as="geometry" />
        </mxCell>
        <mxCell id="bBZBjRqpBGA2IM5Kb0tL-28" value="" style="edgeStyle=orthogonalEdgeStyle;rounded=0;orthogonalLoop=1;jettySize=auto;html=1;" edge="1" parent="WIyWlLk6GJQsqaUBKTNV-1" source="bBZBjRqpBGA2IM5Kb0tL-8" target="bBZBjRqpBGA2IM5Kb0tL-29">
          <mxGeometry relative="1" as="geometry">
            <mxPoint x="384" y="630" as="sourcePoint" />
            <mxPoint x="387" y="1200" as="targetPoint" />
          </mxGeometry>
        </mxCell>
        <mxCell id="bBZBjRqpBGA2IM5Kb0tL-29" value="j&amp;lt;n-i-1" style="rhombus;whiteSpace=wrap;html=1;" vertex="1" parent="WIyWlLk6GJQsqaUBKTNV-1">
          <mxGeometry x="344" y="730" width="80" height="80" as="geometry" />
        </mxCell>
        <mxCell id="bBZBjRqpBGA2IM5Kb0tL-30" value="" style="edgeStyle=orthogonalEdgeStyle;rounded=0;orthogonalLoop=1;jettySize=auto;html=1;" edge="1" parent="WIyWlLk6GJQsqaUBKTNV-1" source="bBZBjRqpBGA2IM5Kb0tL-29" target="bBZBjRqpBGA2IM5Kb0tL-31">
          <mxGeometry relative="1" as="geometry">
            <mxPoint x="390" y="804" as="sourcePoint" />
            <mxPoint x="387" y="1200" as="targetPoint" />
            <Array as="points" />
          </mxGeometry>
        </mxCell>
        <mxCell id="bBZBjRqpBGA2IM5Kb0tL-31" value="t[j] &amp;gt; t[j+1]" style="rhombus;whiteSpace=wrap;html=1;" vertex="1" parent="WIyWlLk6GJQsqaUBKTNV-1">
          <mxGeometry x="317.5" y="830" width="133" height="130" as="geometry" />
        </mxCell>
        <mxCell id="bBZBjRqpBGA2IM5Kb0tL-32" value="H" style="text;html=1;strokeColor=none;fillColor=none;align=center;verticalAlign=middle;whiteSpace=wrap;rounded=0;" vertex="1" parent="WIyWlLk6GJQsqaUBKTNV-1">
          <mxGeometry x="437.5" y="740" width="60" height="30" as="geometry" />
        </mxCell>
        <mxCell id="bBZBjRqpBGA2IM5Kb0tL-33" value="I&lt;br&gt;" style="text;html=1;strokeColor=none;fillColor=none;align=center;verticalAlign=middle;whiteSpace=wrap;rounded=0;" vertex="1" parent="WIyWlLk6GJQsqaUBKTNV-1">
          <mxGeometry x="380.5" y="810" width="60" height="30" as="geometry" />
        </mxCell>
      </root>
    </mxGraphModel>
  </diagram>
</mxfile>
